<svg xmlns="http://www.w3.org/2000/svg" id="Camada_2" data-name="Camada 2" viewBox="0 0 1223.44 424.75"><defs><style>      .cls-1 {        fill: #fff;      }      .cls-1, .cls-2, .cls-3 {        stroke-width: 0px;      }      .cls-2 {        fill: #dc9917;      }      .cls-3 {        fill: #383838;      }    </style></defs><g id="Camada_1-2" data-name="Camada 1"><g><path class="cls-1" d="M669.8,228.06c0-26.89,0-53.78,0-80.67,0-6.96.78-7.76,7.74-7.77,38.78-.02,77.57-.02,116.35,0,6.17,0,6.8.68,6.81,6.95.02,7.8.02,15.6.03,23.41,0,7.84-.76,8.65-8.47,8.65-24.3,0-48.61.12-72.91-.12-4.82-.05-6.51,1.32-6.23,6.14.35,5.95.2,11.95-.02,17.92-.14,3.82,1.16,5.22,5.16,5.16,14.65-.2,29.3-.08,43.94-.06,7.06,0,7.62.58,7.63,7.69.01,7.97.04,15.94,0,23.9-.03,6.46-1,7.46-7.62,7.48-14.48.04-28.97.14-43.44-.1-4.39-.07-5.92,1.3-5.69,5.69.33,6.13.37,12.29.02,18.42-.27,4.73,1.22,6.29,6.14,6.24,23.47-.23,46.94-.08,70.41-.06,1.66,0,3.33.07,4.99.06,4.16-.01,5.99,2.04,5.94,6.18-.1,8.63-.01,17.26-.06,25.9-.03,5.72-1.19,6.84-7.15,6.84-28.96.02-57.93,0-86.89,0-10.15,0-20.31-.17-30.46.08-4.7.12-6.38-1.34-6.34-6.25.21-27.22.1-54.45.1-81.67Z"></path><path class="cls-1" d="M522.79,228.1c0-26.55-.01-53.11,0-79.66,0-8.27.64-8.93,8.71-8.92,36.11.03,72.22.06,108.34.11,6.52,0,7.19.68,7.14,7.14-.06,8.46-.3,16.93-.17,25.39.07,4.72-1.85,6.43-6.56,6.4-22.8-.15-45.6.01-68.4-.14-3.72-.03-5.26.66-5.09,4.82.35,8.45.24,16.93.04,25.39-.07,3.12.96,3.93,3.99,3.89,13.48-.15,26.96-.09,40.44-.06,5.95.01,7.27,1.32,7.31,7.35.05,8.13.04,16.26-.01,24.4-.04,6.62-1.32,7.9-7.87,7.91-13.15.03-26.3.13-39.44-.07-3.54-.05-4.45,1.02-4.42,4.47.17,17.42.09,34.85.07,52.28,0,5.95-1.04,7.03-6.89,7.06-9.98.05-19.97.03-29.95,0-6.47-.02-7.22-.76-7.22-7.1-.01-26.88,0-53.77-.01-80.65Z"></path><path class="cls-1" d="M1137.88,248.29c-8.82,0-17.65.06-26.47-.02-5.81-.06-8.91-2.59-9.02-7.07-.1-4.52,2.73-7.25,8.75-7.34,12.98-.21,25.97-.18,38.95.03,4.11.07,4.88-.87,3.23-4.7-6.79-15.66-13.39-31.41-20.01-47.15-1.63-3.87-2.94-8.19-8.15-8.18-5.05,0-6.18,4.38-7.72,8.01-16.66,39.38-33.29,78.78-49.94,118.17-1.48,3.51-2.98,7.01-5.51,9.97-5.12,6-12.54,7.7-19.79,4.44-6.98-3.14-11.22-10.87-9.85-18.31.42-2.26,1.17-4.49,2.06-6.61,16.72-39.9,33.53-79.76,50.19-119.68,5.37-12.86,12.7-23.62,26.65-28.46,20.17-7.01,41.98,1.2,50.93,20.64,9.97,21.67,18.78,43.88,28.01,65.88,10.33,24.61,20.57,49.25,30.83,73.88.7,1.68,1.45,3.38,1.84,5.14.86,3.89-.42,6.84-4.29,8.39-3.83,1.54-6.69-.02-8.27-3.36-3.18-6.74-6.05-13.63-8.95-20.5-16.73-39.71-33.42-79.44-50.16-119.15-7.6-18.03-25.33-24.44-40.55-14.74-4.94,3.15-8.24,7.66-10.48,12.96-14.56,34.51-29.09,69.04-43.62,103.56-2.89,6.87-5.83,13.73-8.61,20.65-.91,2.26-3.43,5.32.37,6.77,3.67,1.4,4.02-2.62,4.93-4.77,13.07-30.82,26.03-61.7,39.03-92.55,4.31-10.23,8.61-20.47,13.07-30.64,3.9-8.91,10.74-14.05,20.6-13.73,9.56.31,16.01,5.57,19.7,14.37,8.52,20.33,17.19,40.6,25.67,60.95,4.04,9.71,1.62,13.14-8.97,13.19-8.16.03-16.31,0-24.47,0v-.02Z"></path><path class="cls-1" d="M966.77,245.2c.29,1.91,1.9,2.71,3.01,3.83,11.96,12.02,23.96,23.99,35.95,35.98,3.85,3.85,6.8,8.11,7.03,13.83.27,6.94-2.36,12.38-8.46,15.72-6.24,3.41-12.46,2.95-18.27-1.31-.8-.59-1.61-1.2-2.32-1.89-9.36-9.21-18.79-18.35-28.01-27.7-4.08-4.14-4.12-8.16-.74-11.34,3.19-3,6.76-2.58,10.89,1.51,8.52,8.41,16.96,16.89,25.45,25.32.94.93,1.86,1.94,2.95,2.65,1.2.77,2.56.73,3.64-.39,1.08-1.12,1.08-2.44.2-3.62-.79-1.05-1.79-1.95-2.73-2.89-16.71-16.68-33.39-33.37-50.15-49.99-2.49-2.47-4.73-4.86-3.24-8.61,1.59-3.99,5.04-5.01,8.94-4.95,6.84.11,13.63-.11,20.24-2.14,18.12-5.57,29.4-22.52,27.44-41.22-1.85-17.68-16.33-31.7-34.78-33.61-11.62-1.2-23.28-.41-34.92-.53-13.81-.14-27.63.14-41.44-.12-4.26-.08-5.83.84-5.66,5.42.37,9.95.13,19.91.1,29.87,0,1.66.04,3.35-.27,4.96-.66,3.37-3.03,5.1-6.3,5.38-3.15.27-5.42-1.27-6.64-4.21-.91-2.19-.99-4.51-.99-6.85.01-12.78-.02-25.56.03-38.34.03-8.08,2.34-10.4,10.36-10.4,26.8-.01,53.6-.12,80.4.06,27.04.18,48.5,17.62,53.52,43.14,5.39,27.38-12.82,55.06-40.06,61.02-1.7.37-3.66.07-5.16,1.42Z"></path><path class="cls-1" d="M849,232.31c0,23.4,0,46.8,0,70.2,0,1.33.02,2.66,0,3.98-.13,6.64-2.52,9.73-7.42,9.6-4.6-.12-6.92-3.24-6.93-9.57-.03-30.2-.03-60.4-.03-90.61,0-18.25,0-36.51,0-54.76,0-1.49.05-3-.19-4.46-.26-1.61-1.35-2.85-3.04-2.73-1.44.1-2.25,1.41-2.44,2.79-.2,1.47-.16,2.98-.16,4.47,0,20.74,0,41.49-.02,62.23,0,1.82.13,3.71-.28,5.45-.86,3.69-3.36,5.65-7.21,5.52-3.85-.13-6.17-2.14-6.66-6.04-.1-.82-.15-1.65-.15-2.48-.01-22.57-.13-45.14.03-67.71.09-12.17,8-19.77,18.87-18.69,8.88.88,14.86,7.09,15.33,16.64.41,8.44.29,16.92.31,25.38.04,16.93.01,33.85.01,50.78h-.03Z"></path><path class="cls-1" d="M867.91,282.98c0-7.63-.4-15.29.07-22.89,1.75-27.97,22.98-48.96,51.06-50.2,13.62-.6,27.29-.02,40.92-.34,13.32-.31,21.94-12.45,17.53-24.43-2.33-6.33-6.75-10.53-13.7-11.6-1.64-.25-3.28-.53-4.9-.93-3.74-.91-5.56-3.29-5.49-7.17.08-4.08,2.44-6.18,6.16-6.5,8.66-.74,16.02,2.77,22.24,8.29,10.6,9.38,13.88,22.71,9.25,35.24-4.7,12.72-16.04,20.76-30.3,21.11-12.14.3-24.28.24-36.42.44-26.31.43-41.96,16.02-42.38,42.35-.2,12.61-.03,25.22-.05,37.83,0,1.82.03,3.67-.24,5.46-.55,3.62-2.96,5.55-6.44,5.84-3.39.28-5.58-1.56-6.78-4.72-.73-1.93-.75-3.89-.75-5.88,0-7.3,0-14.6,0-21.9.07,0,.14,0,.22,0Z"></path><path class="cls-1" d="M903.65,383.91c9.3,4.23,12.99,11.41,12.34,20.66-.81,11.6-9.25,18.55-22.73,19.04-6.98.25-13.97-.07-20.95.19-3.3.12-4.25-1.09-4.35-4.22-.39-11.95.09-23.88.36-35.82.23-10.28.21-20.58-.19-30.85-.17-4.46.45-6.67,5.63-6.4,5.96.32,11.99-.59,17.94-.24,9.39.54,17.86,3.32,21.47,13.22,3.2,8.77.04,16.7-9.52,24.42ZM875.44,402.22h-.03c0,3.81.03,7.61-.01,11.42-.02,1.85.19,3.21,2.61,3.15,5.8-.14,11.64.26,17.41-.24,7.93-.69,13.77-7.17,13.74-14.46-.03-7.52-6.1-13.78-14.35-14.36-5.29-.37-10.61-.09-15.92-.28-2.53-.09-3.6.71-3.48,3.36.17,3.8.04,7.61.04,11.41ZM885.7,379.92c4.13-.11,8.3.38,12.34-.95,6.08-2.01,9.81-7.18,9.4-13.05-.43-6.1-4.99-10.96-11.39-11.95-5.93-.92-11.92-.29-17.87-.48-2.37-.08-2.67,1.23-2.65,3.12.06,4.46.02,8.93.02,13.39q0,9.92,10.15,9.93Z"></path><path class="cls-1" d="M938.4,384.96c0-11.45.1-22.9-.07-34.35-.05-3.08.88-4.04,3.94-3.91,7.47.32,15.04-.66,22.41.78,17.47,3.41,24.68,22.71,13.44,36.5-2.93,3.59-2.27,5.41.37,8.06,3.82,3.83,5.9,8.79,8.36,13.47,5.51,10.48,11.66,13.4,23.26,11.14,1.36-.27,3.62-2.49,4.26.79.47,2.36.25,4.78-2.76,5.54-10.4,2.62-22.22,2.63-28.22-9.79-2.81-5.82-5.53-11.7-9.91-16.6-3.65-4.08-7.85-6.3-13.66-5.28-3.39.59-6.98.37-10.44.07-3.06-.27-4.1.62-4.03,3.74.18,7.8.05,15.6.05,23.4,0,2.47.59,4.85-3.5,4.94-4.41.1-3.81-2.49-3.81-5.16.01-11.12,0-22.24,0-33.35.1,0,.19,0,.29,0ZM954.63,352.99s0,.09,0,.14c-1.99,0-3.99.09-5.97-.02-2.23-.12-3.35.54-3.32,3.03.12,8.6.1,17.21.09,25.82,0,1.78.5,2.81,2.54,2.73,4.97-.18,10,.19,14.9-.48,8.37-1.14,13.42-7.19,13.47-15.24.05-8.22-5.21-14.26-13.76-15.55-2.61-.39-5.29-.29-7.94-.42Z"></path><path class="cls-1" d="M522.7,384.59c0-11.27-.02-22.55.02-33.82,0-1.69-.64-3.98,2.33-3.92,9.28.18,18.63-1.08,27.84.83,15.01,3.1,23.82,12.48,26.56,27.35,1.42,7.7,1.32,15.53-.59,23.19-3.81,15.33-15.02,24.54-31.09,25.31-6.8.32-13.63-.13-20.44.15-4.1.17-5.18-1.56-5.14-5.28.13-11.27.05-22.54.05-33.81.15,0,.31,0,.46,0ZM529.88,385.31c0,9.28-.03,18.56.03,27.83,0,1.31-.78,3.35,1.49,3.59,10.31,1.1,20.69,1.79,29.81-4.44,11.93-8.15,15.59-29.56,7.97-44.28-3.8-7.35-9.92-11.42-17.84-12.91-5.88-1.11-11.87-1.19-17.86-1.24-2.81-.02-3.7.78-3.65,3.62.16,9.27.06,18.55.05,27.83Z"></path><path class="cls-1" d="M1041.45,386.58c.17,5.4,1.82,12.4,6.12,18.62,10.93,15.83,32.47,16.09,43.85.53.29-.4.55-.83.84-1.23,1.84-2.54,4.79-2.26,6.74-1.25,1.84.96.13,3.26-.6,4.81-5.86,12.43-23.03,19.3-37.65,15.13-18.44-5.26-28.85-21.75-26.73-42.35,1.87-18.15,14.09-31.85,30.7-34.4,12.27-1.89,26.36,4.21,32.45,14.27,1.15,1.9,3.94,4.63,1.54,6.28-2.43,1.68-5.53.37-7.52-2.69-3.92-5.99-9.6-9.53-16.76-10.47-18.93-2.47-33.07,10.71-32.98,32.74Z"></path><path class="cls-1" d="M682.11,424.6c-9.63-.05-18.2-5.57-20.62-13.54-.52-1.73-2.43-4.5.75-5.35,2.45-.66,5.4-1.37,7.14,2.36,3.82,8.18,10.65,11.03,19.26,8.59,5.1-1.45,8.61-5.5,9.19-10.61.71-6.33-1.62-10.89-6.84-13.69-4.9-2.63-10.39-3.37-15.59-5.06-12.08-3.92-17.65-13.63-14.58-25.47,2.38-9.19,10.41-15.09,21.29-15.64,9.46-.48,18.5,4.86,21.62,12.98.68,1.78,2.65,4.6.04,5.54-2.57.93-5.96,1.57-7.91-2.55-4.35-9.19-16.42-11.62-23.86-5.14-7.34,6.39-5.81,17.14,3.12,21.88,3.71,1.97,7.79,2.82,11.84,3.74,12.82,2.91,19.54,11.49,18.15,23.22-1.37,11.58-10.26,18.83-23,18.76Z"></path><path class="cls-1" d="M1223.27,403.09c.03,11.81-5.74,18.81-17.47,21.16-10.84,2.18-21.85-2.98-25.34-12.04-.81-2.1-2.77-5.21.07-6.4,2.8-1.17,6.15-1.15,7.88,3.32,2.7,7,10.28,9.75,18.45,7.56,6.6-1.76,10.22-7.2,9.53-14.34-.56-5.83-4.26-9.27-9.34-11.19-4.96-1.87-10.19-2.99-15.18-4.79-8.8-3.18-13.02-9.19-13.33-18.4-.27-8.24,4.57-15.94,12.27-19.51,11.57-5.36,24.69-1.44,30.73,9.26,1.26,2.23,3.27,5.43.53,6.92-2.64,1.44-6.06,1.22-7.97-3.08-3.33-7.47-10.65-9.92-19-7.25-6.36,2.04-9.92,7.94-8.95,14.8.64,4.5,3.3,7.47,7.18,9.53,4.61,2.46,9.75,3.19,14.71,4.53,10.11,2.74,15.2,9.46,15.23,19.9Z"></path><path class="cls-1" d="M765.54,386.32c0-10.95.17-21.9-.1-32.85-.09-3.63,1.21-4.78,4.55-5.47,14.44-3.02,28.77-1.31,43.16.38,8.26.97,16.58,1.65,24.71-1.07,2.02-.68,3.56-.7,3.9,2.03.27,2.18.97,4.09-2.21,4.99-8.52,2.42-17.12,2.05-25.74,1.19-6.78-.67-13.53-1.6-20.3-2.38-1.15-.13-2.32-.13-3.49-.15-16.48-.31-17.3.48-17.26,16.49q.03,11.4,11.3,11.5c3.49.03,7,.25,10.48.06,3.26-.18,3.25,1.71,3.38,4.07.15,2.73-.97,3.42-3.5,3.29-5.98-.31-11.98-.28-17.95-.64-2.92-.17-3.68.9-3.63,3.67.16,9.45-.02,18.91.16,28.37.05,2.92-.59,4.02-3.81,4.04-3.42.03-3.68-1.48-3.66-4.19.11-11.11.04-22.23.04-33.35h-.03Z"></path><path class="cls-1" d="M620,346.36c2.92-.43,4.37.91,5.39,3.72,6.11,16.95,12.43,33.83,18.59,50.76.44,1.22,2.5,3.3-.42,3.78-2.12.35-5.12,1.75-6.41-1.73-1.43-3.88-2.94-7.74-4.16-11.69-.78-2.53-1.87-3.83-4.84-3.69-5.47.27-10.97.17-16.45.03-2.37-.06-3.61.74-4.33,3.03-1.25,3.94-2.9,7.75-4.18,11.68-.69,2.15-1.96,2.66-4.07,2.69-3.63.06-4.66-.87-3.21-4.59,6.6-16.96,13-33.99,19.36-51.04.89-2.39,1.99-3.74,4.71-2.97ZM610.71,381.35c5.77,0,10.88,0,15.99,0,1.64,0,2.63-.5,1.87-2.38-2.69-6.63-5.37-13.27-8.54-21.09-3.39,8.53-6.28,15.81-9.32,23.47Z"></path><path class="cls-1" d="M824.43,365.76c3.03-.7,4.38.71,5.41,3.51,6.17,16.77,12.57,33.45,18.77,50.21.45,1.22,2.58,3.39-.16,3.99-2.16.47-5.37,2.17-6.75-1.73-1.48-4.21-3.14-8.37-4.55-12.6-.68-2.05-1.8-2.85-3.98-2.81-5.65.11-11.3.15-16.95-.03-2.54-.08-3.49,1.18-4.2,3.25-1.35,3.91-2.93,7.74-4.22,11.67-.69,2.11-1.88,2.67-4.04,2.7-3.63.05-4.6-.82-3.16-4.54,6.46-16.66,12.7-33.4,18.9-50.16.92-2.48,1.94-4.21,4.91-3.44ZM824.65,376.83c-1.67,4.21-2.97,7.16-4.02,10.19-1.53,4.44-4.34,8.46-4.52,13.35,4.79,0,9.58.02,14.37.02.33,0,.66-.03.99-.03,1.65-.02,2.54-.5,1.76-2.39-2.73-6.63-5.39-13.28-8.58-21.15Z"></path><path class="cls-1" d="M1159.91,404.82c-2.69.63-3.93-.59-4.68-3.09-1.04-3.48-2.76-6.78-3.61-10.3-.81-3.34-2.68-4.21-5.72-3.83-.82.1-1.66,0-2.49.02-5.31.09-11.48-1.45-15.67.76-4.07,2.15-3.88,9.03-5.96,13.68-1.09,2.42-5.91,4.02-7.72,2.42-1.41-1.24-.05-2.47.35-3.54,6.37-17.05,12.86-34.06,19.2-51.12.9-2.43,2.24-3.23,4.78-3.14,2.51.08,4.22.31,5.26,3.2,5.45,15.1,11.17,30.1,16.8,45.13.75,2.02,1.38,4.09,2.3,6.03,1.53,3.24.37,4.26-2.84,3.8ZM1138.55,357.78c-3.17,8.03-5.75,14.76-8.48,21.42-.98,2.4.31,2.42,2.02,2.39,4.13-.09,8.26-.19,12.4-.19,2.27,0,3.48-.37,2.31-3.11-2.7-6.35-5.17-12.8-8.24-20.5Z"></path><path class="cls-1" d="M1013.42,383.16c0,5.62-.13,11.25.06,16.87.09,2.76-1.09,3.45-3.54,3.31-2.18-.13-4.33.25-4.26-3.17.24-11.24.33-22.49.35-33.73,0-2.58.92-3.4,3.51-3.42,2.85-.02,3.78,1,3.7,3.78-.15,5.45-.05,10.91-.05,16.37h.23Z"></path><path class="cls-1" d="M1014.29,351.16c-.81,2.25-2.36,4.16-4.34,4.49-2.32.39-4.1-1.87-4.32-3.88-.26-2.31,2.06-4.07,3.98-4.42,2.33-.42,3.32,2.19,4.68,3.81Z"></path><path class="cls-1" d="M624.77,418.67c-1.07,1.92-2.41,4.06-4.47,4.16-2.14.1-4.2-1.99-4.3-4.01-.12-2.36,2.14-4.5,4.34-4.45,1.9.04,3.36,2.31,4.44,4.31Z"></path><path class="cls-1" d="M1143.26,418.85c-1.31,1.73-2.49,4.15-4.64,3.94-2.16-.21-4.52-2.09-4.09-4.58.32-1.87,2.17-4.11,4.47-3.71,1.98.34,3.44,2.25,4.26,4.36Z"></path><path class="cls-1" d="M1073.58,382.55c-1.14,2.03-2.43,4.3-4.81,4.32-1.92.02-3.89-2.02-3.97-3.77-.11-2.38,2.27-4.38,4.3-4.65,2.02-.27,3.41,2.1,4.49,4.1Z"></path></g><g><g><path class="cls-2" d="M15.53,290.58l135.61-.9-31.15-193.24H45.01c-9.82,64.71-19.65,129.43-29.47,194.14Z"></path><ellipse class="cls-2" cx="89" cy="65.66" rx="19.27" ry="18.66"></ellipse><ellipse class="cls-2" cx="110.72" cy="46.99" rx="24.47" ry="23.7"></ellipse><ellipse class="cls-2" cx="152.87" cy="31.33" rx="32.36" ry="31.33"></ellipse></g><path class="cls-2" d="M473.5,276.58c-10.88,3.34-21.76,6.68-32.64,10.03.04,42.43.08,84.86.12,127.29h-.06v9.5H162.15v-230.29l214.82-52.86c-1,13.57-2.13,27.32-3.38,41.25-1.19,13.21-2.47,26.24-3.82,39.08-14.53,4.15-29.24,8.26-44.12,12.32-13.68,3.73-27.25,7.35-40.71,10.86-.34,1.9-.56,4.25-.35,6.94.08,1.03.22,2,.39,2.89l34.08-9.88v49.34c-6.04,1.91-12.08,3.83-18.13,5.74h0c6.95-.84,13.89-1.67,20.84-2.51h.82v-53.59l150.91-43.76v77.65Z"></path><rect class="cls-2" x="431.25" y="322.47" width="35.33" height="58.35"></rect><path class="cls-3" d="M209.58,334h27.71v86.47h-37.53v-76.65c0-5.42,4.4-9.82,9.82-9.82Z"></path><path class="cls-3" d="M240.43,334h25.19c6.81,0,12.34,5.53,12.34,12.34v74.13h-37.53v-86.47h0Z"></path><path class="cls-3" d="M220.29,227.91c-10.19,2.34-20.38,4.67-30.57,7.01l2.7-25.15c10.24-2.84,20.49-5.69,30.73-8.53-.95,8.89-1.91,17.78-2.86,26.67Z"></path><path class="cls-3" d="M256.54,219.74c-10.19,2.34-20.38,4.67-30.57,7.01.9-8.38,1.8-16.77,2.7-25.15,10.24-2.84,20.49-5.69,30.73-8.53-.95,8.89-1.91,17.78-2.86,26.67Z"></path><path class="cls-3" d="M400.03,268.75c-10.11,2.66-20.22,5.32-30.33,7.98l1.9-25.22c10.15-3.17,20.3-6.34,30.45-9.51-.67,8.92-1.34,17.83-2.01,26.75Z"></path><path class="cls-3" d="M436,259.42c-10.11,2.66-20.22,5.32-30.33,7.98.63-8.41,1.26-16.82,1.9-25.22,10.15-3.17,20.3-6.34,30.45-9.51l-2.01,26.75Z"></path><rect class="cls-2" x="206.43" y="116.35" width="36.26" height="65.65"></rect><path class="cls-2" d="M292.18,157.21c-12.25,2.79-24.5,5.59-36.75,8.38-.1-23-.2-46-.3-69h36.26c.26,20.21.53,40.41.79,60.62Z"></path><rect class="cls-2" x="217.51" y="83.05" width="25.18" height="25.18" rx="12.59" ry="12.59"></rect><path class="cls-2" d="M219.02,88.95h12.59v12.59c0,6.95-5.64,12.59-12.59,12.59h0c-6.95,0-12.59-5.64-12.59-12.59h0c0-6.95,5.64-12.59,12.59-12.59Z" transform="translate(440.72 197.09) rotate(178.45)"></path><ellipse class="cls-2" cx="242.18" cy="95.29" rx="9.35" ry="7.06"></ellipse><rect class="cls-2" x="272.34" y="63.29" width="25.18" height="25.18" rx="12.59" ry="12.59"></rect><path class="cls-2" d="M273.85,69.18h12.59v12.59c0,6.95-5.64,12.59-12.59,12.59h0c-6.95,0-12.59-5.64-12.59-12.59h0c0-6.95,5.64-12.59,12.59-12.59Z" transform="translate(549.81 156.08) rotate(178.45)"></path><ellipse class="cls-2" cx="295.51" cy="72.95" rx="22.65" ry="7.06" transform="translate(-8.13 94.18) rotate(-17.87)"></ellipse><rect class="cls-2" y="288.11" width="168.19" height="134.01"></rect><polygon class="cls-2" points="322.6 296.18 322.59 296.18 322.59 296.1 322.6 296.18"></polygon><rect class="cls-3" x="38.57" y="325.05" width="23.23" height="17.89" rx="5.51" ry="5.51"></rect><rect class="cls-3" x="67.46" y="325.05" width="23.23" height="17.89" rx="6.28" ry="6.28"></rect><rect class="cls-3" x="95.9" y="325.05" width="23.23" height="17.89" rx="5.35" ry="5.35"></rect><rect class="cls-3" x="322.59" y="325.05" width="22.27" height="17.89" rx="4.42" ry="4.42"></rect><rect class="cls-3" x="350.28" y="325.05" width="22.27" height="17.89" rx="5.03" ry="5.03"></rect><rect class="cls-3" x="377.54" y="325.05" width="22.27" height="17.89" rx="4.99" ry="4.99"></rect></g></g></svg>